<?xml version="1.0" standalone="no"?>
<!DOCTYPE svg PUBLIC "-//W3C//DTD SVG 20010904//EN"
 "http://www.w3.org/TR/2001/REC-SVG-20010904/DTD/svg10.dtd">
<svg version="1.0" xmlns="http://www.w3.org/2000/svg"
 width="256.000000pt" height="256.000000pt" viewBox="0 0 256.000000 256.000000"
 preserveAspectRatio="xMidYMid meet">
<metadata>
Created by potrace 1.14, written by Peter Selinger 2001-2017
</metadata>
<g transform="translate(0.000000,256.000000) scale(0.100000,-0.100000)"
fill="#000000" stroke="none">
<path d="M1573 2497 c-13 -5 -25 -18 -28 -28 -4 -11 -10 -19 -15 -19 -4 0 -7
-8 -5 -17 1 -10 -1 -25 -6 -34 -4 -9 -10 -34 -13 -55 -2 -21 -5 -39 -6 -39 -3
0 -9 -40 -12 -73 -1 -20 -9 -37 -20 -43 -10 -6 -16 -14 -13 -18 2 -5 -2 -15
-11 -22 -12 -10 -37 -55 -49 -89 -1 -3 -5 -12 -9 -21 -4 -9 -9 -29 -11 -45 -2
-16 -4 -30 -6 -31 -1 -2 -2 -11 -3 -20 -1 -10 -5 -23 -9 -30 -4 -6 -4 -14 1
-17 4 -2 9 -20 10 -38 3 -49 8 -68 28 -117 l17 -44 -24 -19 c-13 -11 -42 -34
-63 -51 -22 -18 -47 -40 -55 -49 -9 -10 -19 -18 -24 -18 -4 0 -21 -14 -37 -30
-17 -17 -30 -27 -30 -23 0 4 -7 -1 -16 -12 -8 -11 -16 -18 -17 -15 -2 4 -37
-22 -73 -56 -13 -12 -25 -20 -28 -17 -2 3 -11 -4 -18 -16 -7 -12 -18 -21 -25
-21 -7 0 -18 -9 -25 -20 -7 -11 -17 -20 -23 -20 -6 0 -18 -8 -27 -17 -34 -35
-55 -53 -62 -53 -4 0 -20 -12 -36 -27 -45 -45 -74 -68 -82 -65 -5 1 -8 -2 -8
-8 0 -5 -11 -20 -25 -34 -14 -14 -25 -22 -25 -18 0 3 -17 -12 -37 -35 -57 -61
-74 -83 -65 -83 4 0 0 -6 -9 -13 -27 -21 -108 -202 -114 -257 -1 -8 -6 -35
-10 -60 -4 -25 -8 -63 -8 -85 l0 -40 -9 35 c-6 19 -12 42 -15 50 -9 26 -9 80
-1 80 5 0 4 8 -1 19 -6 10 -8 20 -6 22 6 6 18 69 19 102 0 15 5 27 9 27 5 0 6
4 3 8 -3 5 1 21 9 36 10 18 10 24 2 19 -9 -5 -9 -3 -1 8 6 8 22 43 37 79 14
36 35 88 48 115 12 28 22 53 21 58 -1 4 3 7 9 7 5 0 8 4 4 9 -3 5 2 16 10 25
9 8 16 19 15 23 0 20 23 73 32 73 6 0 9 2 6 5 -3 3 7 38 23 76 16 39 27 75 24
79 -3 5 -1 10 4 12 6 1 12 17 15 33 2 17 5 30 6 30 1 0 3 18 5 40 1 22 4 41 5
43 3 3 3 40 0 50 -1 4 -3 12 -4 17 -11 66 -20 96 -32 106 -8 6 -14 17 -14 24
0 31 -138 154 -154 138 -3 -4 -6 -1 -6 5 0 7 -3 11 -7 10 -5 -1 -25 3 -45 9
-48 14 -161 7 -199 -13 -16 -8 -29 -11 -29 -8 0 4 -9 -1 -21 -12 -12 -10 -22
-17 -23 -14 -2 6 -43 -28 -82 -68 -31 -32 -70 -99 -66 -114 1 -5 -3 -8 -10 -8
-6 0 -8 -3 -5 -6 3 -4 2 -15 -3 -24 -5 -10 -12 -44 -14 -77 -4 -63 12 -108 41
-116 15 -5 64 -4 84 1 13 3 38 69 41 103 1 19 8 43 15 55 7 11 10 24 6 27 -3
4 -1 7 5 7 7 0 11 4 9 8 -3 10 54 67 68 67 5 1 9 6 8 11 -2 13 4 14 90 18 46
1 71 -2 79 -11 6 -7 16 -13 23 -13 6 0 18 -11 25 -25 7 -13 17 -22 22 -19 4 3
8 -2 8 -10 0 -9 4 -16 9 -16 5 0 8 -11 6 -25 -1 -14 1 -25 5 -25 8 0 -1 -116
-11 -127 -1 -2 -2 -7 -3 -12 0 -5 -4 -13 -8 -17 -5 -4 -8 -17 -8 -28 0 -12 -7
-31 -15 -42 -8 -12 -11 -24 -8 -28 3 -3 2 -6 -4 -6 -5 0 -10 -6 -10 -13 0 -18
-65 -160 -78 -169 -5 -4 -6 -8 -1 -8 5 0 3 -7 -4 -15 -6 -8 -9 -19 -5 -25 3
-5 2 -10 -3 -10 -8 0 -14 -13 -22 -48 -1 -4 -9 -15 -17 -24 -9 -10 -13 -18
-10 -18 3 0 -3 -20 -14 -45 -11 -25 -18 -49 -14 -54 3 -5 1 -11 -5 -13 -6 -2
-12 -14 -15 -26 -2 -13 -7 -32 -10 -42 -6 -18 -11 -40 -21 -90 -16 -77 -11
-253 10 -315 1 -5 7 -23 11 -40 20 -72 128 -215 162 -215 7 0 13 -4 13 -10 0
-5 7 -10 15 -10 8 0 15 -5 15 -11 0 -5 4 -8 9 -5 9 6 51 -26 51 -39 0 -4 14
-21 30 -37 17 -15 30 -33 30 -39 0 -5 5 -7 10 -4 6 3 10 2 10 -3 0 -4 21 -19
47 -32 l48 -24 732 -1 c488 0 729 -3 726 -10 -4 -6 -2 -6 5 0 18 17 21 105 4
153 -8 24 -26 56 -41 72 -30 32 -53 41 -123 49 -4 1 -5 7 -3 14 2 6 6 30 8 52
2 22 6 46 10 52 4 6 3 14 -3 18 -6 4 -7 11 -4 17 4 6 8 21 9 32 2 12 5 42 8
66 4 25 9 72 13 105 14 129 23 197 29 225 3 14 8 48 11 75 3 28 7 57 10 66 2
9 7 34 10 55 5 36 7 50 19 109 2 11 4 20 5 20 1 0 3 11 5 25 2 14 6 36 9 50 3
14 8 34 10 45 10 51 19 81 27 90 8 11 9 16 9 40 0 9 9 15 24 15 14 0 28 5 31
10 4 6 11 8 16 5 5 -4 9 -1 9 6 0 7 3 9 7 6 3 -4 17 0 30 8 13 9 23 12 23 9 0
-4 9 3 20 16 11 13 20 19 20 14 0 -5 23 15 50 45 28 30 50 60 50 68 0 7 4 13
9 13 10 0 21 27 20 44 0 5 3 12 8 15 18 13 32 99 29 176 -3 56 -10 95 -27 130
-12 28 -22 53 -21 58 1 4 -3 7 -8 7 -6 0 -10 6 -10 14 0 7 -7 19 -15 26 -8 7
-12 17 -8 23 3 5 2 8 -3 5 -5 -3 -13 -1 -19 6 -9 10 -12 23 -18 96 -1 14 -6
31 -10 38 -5 7 -4 12 2 12 6 0 4 14 -5 35 -8 19 -11 35 -7 35 4 0 2 5 -5 12
-7 7 -12 20 -12 30 0 10 -4 18 -9 18 -5 0 -12 8 -16 19 -4 14 -12 17 -33 13
-32 -6 -83 -42 -76 -53 2 -4 -5 -10 -16 -14 -11 -3 -20 -12 -20 -20 0 -7 -3
-15 -7 -17 -5 -1 -20 -19 -34 -38 l-26 -35 -189 1 c-104 1 -192 2 -195 3 -4 1
-19 20 -34 44 -35 52 -113 129 -125 122 -4 -3 -10 -1 -12 4 -1 4 -13 4 -25 -2z"/>
</g>
</svg>
